<?xml version="1.0" encoding="UTF-8" standalone="no"?>
<svg
   xmlns:dc="http://purl.org/dc/elements/1.1/"
   xmlns:cc="http://creativecommons.org/ns#"
   xmlns:rdf="http://www.w3.org/1999/02/22-rdf-syntax-ns#"
   xmlns:svg="http://www.w3.org/2000/svg"
   xmlns="http://www.w3.org/2000/svg"
   xmlns:sodipodi="http://sodipodi.sourceforge.net/DTD/sodipodi-0.dtd"
   xmlns:inkscape="http://www.inkscape.org/namespaces/inkscape"
   width="24"
   height="24"
   viewBox="0 0 24 24"
   fill="none"
   stroke="currentColor"
   stroke-width="2"
   stroke-linecap="round"
   stroke-linejoin="round"
   class="feather feather-headphones"
   version="1.1"
   id="svg302"
   sodipodi:docname="headphones.svg"
   inkscape:version="1.0.1 (3bc2e813f5, 2020-09-07)">
  <metadata
     id="metadata308">
    <rdf:RDF>
      <cc:Work
         rdf:about="">
        <dc:format>image/svg+xml</dc:format>
        <dc:type
           rdf:resource="http://purl.org/dc/dcmitype/StillImage" />
      </cc:Work>
    </rdf:RDF>
  </metadata>
  <defs
     id="defs306" />
  <sodipodi:namedview
     pagecolor="#ffffff"
     bordercolor="#666666"
     borderopacity="1"
     objecttolerance="10"
     gridtolerance="10"
     guidetolerance="10"
     inkscape:pageopacity="0"
     inkscape:pageshadow="2"
     inkscape:window-width="1366"
     inkscape:window-height="707"
     id="namedview304"
     showgrid="false"
     inkscape:zoom="23.041667"
     inkscape:cx="12"
     inkscape:cy="12"
     inkscape:window-x="0"
     inkscape:window-y="25"
     inkscape:window-maximized="1"
     inkscape:current-layer="svg302" />
  <path
     style="fill:#ffffff;stroke:none;stroke-width:0.0513392"
     id="path56-3"
     d="M 21.246205,0.50000003 H 2.7537952 c -1.242411,0 -2.250714,1.00573567 -2.253795,2.24866087 V 21.251339 C 0.5030002,22.494263 1.5113842,23.5 2.7537952,23.5 H 21.246205 C 22.48913,23.5 23.49692,22.494263 23.5,21.251339 V 2.7486609 C 23.4969,1.5057357 22.488616,0.50000003 21.246205,0.50000003 Z"
     fill="#000000"
     sodipodi:nodetypes="ssccssccs" />
  <g
     id="g318"
     transform="matrix(1.1,0,0,1.1,-1.2,-1.2000021)">
    <path
       d="m 3,18 v -6 a 9,9 0 0 1 18,0 v 6"
       id="path298" />
    <path
       d="m 21,19 a 2,2 0 0 1 -2,2 h -1 a 2,2 0 0 1 -2,-2 v -3 a 2,2 0 0 1 2,-2 h 3 z M 3,19 a 2,2 0 0 0 2,2 H 6 A 2,2 0 0 0 8,19 V 16 A 2,2 0 0 0 6,14 H 3 Z"
       id="path300" />
  </g>
</svg>
