<?xml version="1.0" encoding="UTF-8" standalone="no"?>
<svg
   xmlns:dc="http://purl.org/dc/elements/1.1/"
   xmlns:cc="http://creativecommons.org/ns#"
   xmlns:rdf="http://www.w3.org/1999/02/22-rdf-syntax-ns#"
   xmlns:svg="http://www.w3.org/2000/svg"
   xmlns="http://www.w3.org/2000/svg"
   xmlns:sodipodi="http://sodipodi.sourceforge.net/DTD/sodipodi-0.dtd"
   xmlns:inkscape="http://www.inkscape.org/namespaces/inkscape"
   width="24"
   height="24"
   viewBox="0 0 24 24"
   fill="none"
   stroke="currentColor"
   stroke-width="2"
   stroke-linecap="round"
   stroke-linejoin="round"
   class="feather feather-linkedin"
   version="1.1"
   id="svg427"
   sodipodi:docname="linkedin.svg"
   inkscape:version="1.0.1 (3bc2e813f5, 2020-09-07)">
  <metadata
     id="metadata433">
    <rdf:RDF>
      <cc:Work
         rdf:about="">
        <dc:format>image/svg+xml</dc:format>
        <dc:type
           rdf:resource="http://purl.org/dc/dcmitype/StillImage" />
      </cc:Work>
    </rdf:RDF>
  </metadata>
  <defs
     id="defs431" />
  <sodipodi:namedview
     pagecolor="#ffffff"
     bordercolor="#666666"
     borderopacity="1"
     objecttolerance="10"
     gridtolerance="10"
     guidetolerance="10"
     inkscape:pageopacity="0"
     inkscape:pageshadow="2"
     inkscape:window-width="1366"
     inkscape:window-height="707"
     id="namedview429"
     showgrid="false"
     inkscape:zoom="23.041667"
     inkscape:cx="10.565161"
     inkscape:cy="11.391079"
     inkscape:window-x="0"
     inkscape:window-y="25"
     inkscape:window-maximized="1"
     inkscape:current-layer="svg427"
     inkscape:document-rotation="0" />
  <path
     style="fill:#ffffff;stroke:none;stroke-width:0.0513392"
     id="path56-3"
     d="M 21.246205,0.49999995 H 2.7537952 c -1.242411,0 -2.250714,1.00573575 -2.253795,2.24866075 V 21.251339 C 0.5030002,22.494263 1.5113842,23.5 2.7537952,23.5 H 21.246205 C 22.48913,23.5 23.49692,22.494263 23.5,21.251339 V 2.7486607 c -0.0031,-1.242925 -1.011384,-2.24866075 -2.253795,-2.24866075 z"
     fill="#000000"
     sodipodi:nodetypes="ssccssccs" />
  <g
     id="g444"
     transform="translate(0,0.5)"
     style="stroke:#6272a4;stroke-opacity:1">
    <path
       d="m 16,8 a 6,6 0 0 1 6,6 v 7 h -4 v -7 a 2,2 0 0 0 -2,-2 2,2 0 0 0 -2,2 v 7 h -4 v -7 a 6,6 0 0 1 6,-6 z"
       id="path421"
       style="stroke:#6272a4;stroke-opacity:1" />
    <rect
       x="2"
       y="9"
       width="4"
       height="12"
       id="rect423"
       style="stroke:#6272a4;stroke-opacity:1" />
    <circle
       cx="4"
       cy="4"
       r="2"
       id="circle425"
       style="stroke:#6272a4;stroke-opacity:1" />
  </g>
</svg>
