<?xml version="1.0" encoding="UTF-8" standalone="no"?>
<svg
   xmlns:dc="http://purl.org/dc/elements/1.1/"
   xmlns:cc="http://creativecommons.org/ns#"
   xmlns:rdf="http://www.w3.org/1999/02/22-rdf-syntax-ns#"
   xmlns:svg="http://www.w3.org/2000/svg"
   xmlns="http://www.w3.org/2000/svg"
   xmlns:sodipodi="http://sodipodi.sourceforge.net/DTD/sodipodi-0.dtd"
   xmlns:inkscape="http://www.inkscape.org/namespaces/inkscape"
   id="regular"
   enable-background="new 0 0 24 24"
   height="24"
   viewBox="0 0 1.125 1.125"
   width="24"
   version="1.1"
   sodipodi:docname="medium.svg"
   inkscape:version="1.0 (4035a4fb49, 2020-05-01)">
  <metadata
     id="metadata72">
    <rdf:RDF>
      <cc:Work
         rdf:about="">
        <dc:format>image/svg+xml</dc:format>
        <dc:type
           rdf:resource="http://purl.org/dc/dcmitype/StillImage" />
        <dc:title></dc:title>
      </cc:Work>
    </rdf:RDF>
  </metadata>
  <defs
     id="defs70" />
  <sodipodi:namedview
     inkscape:document-rotation="0"
     pagecolor="#ffffff"
     bordercolor="#666666"
     borderopacity="1"
     objecttolerance="10"
     gridtolerance="10"
     guidetolerance="10"
     inkscape:pageopacity="0"
     inkscape:pageshadow="2"
     inkscape:window-width="1366"
     inkscape:window-height="707"
     id="namedview68"
     showgrid="false"
     inkscape:zoom="11.424194"
     inkscape:cx="17.668315"
     inkscape:cy="8.5763865"
     inkscape:window-x="0"
     inkscape:window-y="25"
     inkscape:window-maximized="1"
     inkscape:current-layer="regular" />
  <path
     d="m 0.03864378,0.22017928 0.11665599,0.0767223 V 0.78504225 L 0.03347804,0.90524683 C 0.01209635,0.9264039 0.02714439,0.9629232 0.05715062,0.9629232 h 0.26363265 c 0.0299614,0 0.0450992,-0.0364741 0.0236726,-0.0576764 L 0.22263413,0.78504225 V 0.42963897 c 0.12492118,0.26574394 0.24669799,0.52434552 0.24377823,0.51846107 0.0123079,0.0249751 0.0512532,0.0256489 0.0618093,-0.003374 l 4.491e-5,-8.98e-5 c 0,0 4.492e-5,-4.495e-5 4.492e-5,-8.989e-5 0.0291978,-0.0805412 0.0918155,-0.25325618 0.0878177,-0.24229582 0.002247,-0.006249 0.10875016,-0.31021424 0.11041217,-0.31493077 v 0.43899838 l -0.0782049,0.0792829 c -0.0209775,0.0212923 -0.005839,0.057362 0.0239871,0.057362 H 1.0678398 c 0.029737,0 0.04492,-0.0358906 0.024077,-0.0572279 l -0.07515,-0.0769471 -0.00301,-0.53602452 0.077755,-0.0767222 c 0.021382,-0.0211571 0.00634,-0.0576763 -0.023673,-0.0576763 -0.031534,0 0.1143203,-4.494e-5 -0.30859702,1.7969e-4 -0.0430329,0.001256 -0.028479,0.0399338 -0.1790492,0.43895353 L 0.39557427,0.17844905 c -0.00539,-0.0122181 -0.0175186,-0.020124 -0.0308597,-0.020124 H 0.05715062 c -0.03333028,4.494e-5 -0.04640185,0.0435716 -0.01850684,0.0618542 z m 0.1005748,0.67540985 0.0497259,-0.0490973 0.0497259,0.0490973 z M 0.79392056,0.22574931 h 0.19185119 c -0.0215164,0.0240321 -0.0395741,0.0310394 -0.0394842,0.0532296 l 0.00319,0.56378486 c 8.984e-5,0.0213813 0.0175635,0.0288832 0.0383613,0.0527802 H 0.75290904 c 0.0232234,-0.0263676 0.0410565,-0.0336001 0.0410565,-0.0554309 V 0.22574931 Z m -0.45117164,0 L 0.5473124,0.68999248 0.492241,0.84483006 C 0.21481813,0.25566568 0.22456567,0.24641231 0.16967401,0.22574931 Z"
     id="path65"
     style="stroke-width:0.0449195" />
</svg>
